# xmcd
#
# Track frame offsets: 
#        150
#        31225
#        44385
#        74010
#        117612
#        143492
#        174917
#        207900
#        235312
#        255100
#        277367
#        316490
#
# Disc length: 4690 seconds
#
# Revision: 30
# Processed by: cddbd v1.5.2PL0 Copyright (c) Steve Scherf et al.
# Submitted via: ExactAudioCopy v1.0b6
#
DISCID=b112500c
DTITLE=X - X Singles KSC2-70
DYEAR=1993
DGENRE=Heavy Metal
TTITLE0=紅 (Single Version)
TTITLE1=20th CENTURY BOY (Live Take)
TTITLE2=ENDLESS RAIN
TTITLE3=X (Live Version)
TTITLE4=WEEK END
TTITLE5=ENDLESS RAIN (Live Version)
TTITLE6=Silent Jealousy
TTITLE7=Sadistic Desire
TTITLE8=Standing sex
TTITLE9=Joker
TTITLE10=Say Anything
TTITLE11=Silent Jealousy (Live Version)
EXTD=YEAR: 1993
EXTT0=
EXTT1=
EXTT2=
EXTT3=
EXTT4=
EXTT5=
EXTT6=
EXTT7=
EXTT8=
EXTT9=
EXTT10=
EXTT11=
PLAYORDER=
